<svg version="1.1" id="Layer_1" xmlns="http://www.w3.org/2000/svg" xmlns:xlink="http://www.w3.org/1999/xlink" x="0px" y="0px"
	 width="100%" viewBox="0 0 512 512" enable-background="new 0 0 512 512" xml:space="preserve">
<path fill="transparent" opacity="1.000000" stroke="none" 
	d="
M286.000000,513.000000 
	C190.689804,513.000000 95.879608,513.000000 1.069408,513.000000 
	C1.046274,512.856506 1.002859,512.713013 1.002857,512.569519 
	C0.999979,342.111115 1.000000,171.652710 1.000000,1.097158 
	C171.560211,1.097158 342.120514,1.097158 512.840393,1.097158 
	C512.840393,171.666550 512.840393,342.333252 512.840393,513.000000 
	C437.462860,513.000000 361.981415,513.000000 286.000000,513.000000 
M167.984726,366.012238 
	C167.984726,366.012238 167.873001,366.026886 168.065018,366.546112 
	C168.385696,366.649139 168.706390,366.752197 169.415009,367.004761 
	C169.415009,367.004761 169.830246,367.026184 170.121338,367.633972 
	C171.431046,368.374390 172.740768,369.114807 174.425568,370.004578 
	C174.425568,370.004578 174.828766,370.025696 175.153427,370.671082 
	C177.762390,371.827637 180.371353,372.984192 182.977188,374.052948 
	C182.977188,374.052948 182.889725,374.061035 183.195557,374.679321 
	C184.515060,375.458496 185.834564,376.237671 186.846649,377.646057 
	C185.656708,379.166626 184.503098,380.717316 183.270905,382.202789 
	C175.533478,391.530701 167.778564,400.844086 159.135208,410.019867 
	C156.382828,409.694763 153.634628,409.327728 150.877228,409.052948 
	C144.293289,408.396729 138.545715,409.873352 134.161926,415.297668 
	C130.877197,419.362152 130.215744,423.514557 132.992386,428.820831 
	C134.493576,434.342102 137.829971,438.107178 143.617950,438.969086 
	C151.847855,440.194611 160.123917,441.109314 168.378555,442.170044 
	C178.256790,443.439392 188.127167,444.772034 198.012268,445.985229 
	C207.109253,447.101715 216.228180,448.039429 225.324661,449.159760 
	C235.211044,450.377380 245.078003,451.752258 254.962143,452.988922 
	C264.216766,454.146820 273.510895,455.025238 282.732147,456.398834 
	C287.414307,457.096283 294.733307,453.758179 297.552917,448.932159 
	C297.745026,448.621613 297.937134,448.311096 298.055389,448.024658 
	C298.055389,448.024658 298.081146,448.097900 298.771179,447.696808 
	C301.653839,440.620361 300.156830,432.447083 294.078094,428.921417 
	C290.079590,426.602264 285.004639,425.682953 280.301697,425.192963 
	C277.104858,424.859894 275.398499,424.059540 273.949463,421.179382 
	C269.169800,411.679108 264.076324,402.336731 259.007721,392.208313 
	C257.624054,389.480713 256.240387,386.753143 254.927490,383.473602 
	C254.629333,383.272156 254.331192,383.070709 254.038483,382.975891 
	C254.038483,382.975891 254.144836,382.966522 254.046021,382.183746 
	C254.634079,381.786957 255.172775,381.262878 255.817734,381.012817 
	C263.572296,378.006317 271.342529,375.040405 279.018433,372.042603 
	C279.018433,372.042603 279.001190,372.133698 279.638916,372.018066 
	C280.130005,371.698395 280.621124,371.378693 281.017334,371.039581 
	C281.017334,371.039581 281.001678,371.135162 281.639343,371.018768 
	C282.130280,370.698700 282.621216,370.378632 283.017090,370.039490 
	C283.017090,370.039490 283.001831,370.135223 283.639069,370.017853 
	C284.129974,369.697845 284.620850,369.377808 285.016144,369.038635 
	C285.016144,369.038635 285.000641,369.134949 285.646851,369.016388 
	C286.144897,368.688416 286.642914,368.360443 287.783936,367.749817 
	C301.896881,360.825409 314.533569,351.910156 325.656738,339.843567 
	C336.230652,327.932068 346.711212,315.935822 357.417847,304.144867 
	C362.765839,298.255341 368.526825,292.740845 374.722046,286.789734 
	C376.605560,285.231354 378.457855,283.633331 380.377777,282.121216 
	C390.609589,274.062683 400.568207,265.618958 411.160400,258.064270 
	C434.537811,241.390762 459.473419,227.308762 485.337067,214.840897 
	C487.771210,213.667496 489.928345,211.635956 491.783417,209.608765 
	C494.871368,206.234299 495.227264,199.506805 491.611084,195.653915 
	C489.332733,193.226410 484.880829,190.782578 481.981934,191.341888 
	C467.720337,194.093460 453.531586,197.417145 439.540588,201.336517 
	C409.871857,209.647812 380.390259,218.626282 350.730652,226.971268 
	C339.082886,230.248459 327.150635,232.506378 315.372467,235.330734 
	C304.316071,237.982025 302.193451,237.278534 295.723206,228.325989 
	C295.433685,227.925369 295.051117,227.592682 294.718353,227.222504 
	C277.446167,208.006668 255.860123,197.705017 230.234085,195.281128 
	C233.178879,191.756943 236.839737,188.604874 238.907898,184.625122 
	C242.385986,177.932266 241.864166,171.029068 236.933548,164.472244 
	C236.933548,164.472244 236.802536,164.111710 236.920090,163.529343 
	C236.607513,163.309921 236.294952,163.090515 235.875778,162.440002 
	C235.705719,162.161774 235.457672,162.020691 234.948273,161.480484 
	C234.634232,161.294479 234.320190,161.108459 234.006012,160.993271 
	C234.006012,160.993271 234.076828,160.991928 233.930222,160.459579 
	C233.622406,160.280960 233.314606,160.102341 233.005508,159.993896 
	C233.005508,159.993896 233.075684,159.992294 232.929718,159.459991 
	C232.622055,159.281387 232.314392,159.102783 232.001907,158.989441 
	C232.001907,158.989441 232.066177,158.977127 231.841980,158.370102 
	C231.227936,158.201904 230.613876,158.033722 229.715454,157.254944 
	C228.515640,156.826385 227.315826,156.397827 225.718857,155.262512 
	C225.399902,155.178879 225.078949,155.102173 224.762299,155.010605 
	C209.629761,150.633682 196.437958,161.199677 196.259308,176.532913 
	C196.152710,185.683044 201.435410,192.882736 209.591125,197.826126 
	C202.082077,199.527908 194.573029,201.229675 186.729401,202.354309 
	C172.687149,207.714127 160.779205,215.936752 150.910049,227.440247 
	C139.347702,240.917328 134.354324,256.824402 131.243652,273.983917 
	C130.574234,273.563446 129.860321,273.199615 129.242004,272.714020 
	C118.245651,264.078217 107.701675,254.773560 96.138428,246.980835 
	C86.356758,240.388748 75.261497,235.970901 62.063305,236.015518 
	C59.574417,236.009811 57.041679,235.699600 54.604160,236.050629 
	C43.491856,237.650818 33.427265,241.519638 26.987591,251.348907 
	C17.095640,266.447601 18.260229,282.207123 25.002678,298.742950 
	C25.325411,299.217163 25.648144,299.691376 25.995789,300.585205 
	C25.995789,300.585205 26.145975,300.977844 26.090134,301.532562 
	C26.384760,301.745209 26.679386,301.957855 26.995224,302.581177 
	C26.995224,302.581177 27.141249,302.965576 27.074314,303.520905 
	C27.373690,303.724152 27.673063,303.927368 27.963686,304.039948 
	C27.963686,304.039948 27.873598,304.053558 27.988728,304.704346 
	C28.639044,305.507629 29.289360,306.310883 29.947578,307.027252 
	C29.947578,307.027252 29.860357,307.024536 29.985968,307.679840 
	C30.638781,308.491547 31.291594,309.303223 31.952166,310.025604 
	C31.952166,310.025604 31.862564,310.022644 32.002720,310.676147 
	C32.659279,311.507019 33.315842,312.337891 34.077663,313.605530 
	C34.249908,313.888123 34.501507,314.028778 34.982601,314.676636 
	C35.633137,315.489929 36.283672,316.303223 36.962452,317.029999 
	C36.962452,317.029999 36.874691,317.005859 37.055767,317.545135 
	C37.361622,317.756683 37.667473,317.968201 38.230206,318.782410 
	C41.095234,321.530273 43.960262,324.278137 47.126900,327.641724 
	C48.742489,328.817963 50.358078,329.994171 52.077267,331.605347 
	C52.248264,331.886963 52.498497,332.027222 53.125542,332.638000 
	C54.398834,333.466003 55.672123,334.294006 56.959412,335.049774 
	C56.959412,335.049774 56.886803,335.061829 57.158047,335.675232 
	C58.420757,336.490387 59.683468,337.305542 60.960236,338.048553 
	C60.960236,338.048553 60.887749,338.060699 61.151814,338.665253 
	C62.084568,339.150726 63.017326,339.636200 63.961308,340.049500 
	C63.961308,340.049500 63.889114,340.060638 64.179100,340.695953 
	C66.768822,342.171326 69.358551,343.646729 71.960693,345.049896 
	C71.960693,345.049896 71.888298,345.061127 72.187531,345.702545 
	C76.107475,347.841400 80.027420,349.980255 83.967056,352.024384 
	C83.967056,352.024384 83.871666,352.008362 84.055717,352.527130 
	C84.356094,352.718109 84.656479,352.909088 84.994392,353.881104 
	C87.109833,368.682922 105.793289,376.582611 118.652451,368.799133 
	C122.576241,366.424133 126.524612,363.880768 128.199982,358.264191 
	C131.357864,349.143585 131.565521,340.305511 124.944328,332.517639 
	C117.594254,323.872467 108.198784,323.114899 97.274849,326.014404 
	C94.546799,324.658051 91.818748,323.301697 88.785225,321.310150 
	C81.924072,316.425507 74.700706,311.969696 68.288261,306.553741 
	C59.103699,298.796509 51.541668,289.629669 48.266544,277.643768 
	C46.896717,272.630646 48.789116,266.106781 52.594151,265.348389 
	C56.921333,264.485931 61.512737,264.949158 66.790520,264.988678 
	C73.692848,267.994385 80.940628,270.398682 87.428787,274.125458 
	C103.071587,283.110535 115.356087,296.160339 127.540337,309.192444 
	C129.527740,311.318146 130.680710,314.296204 131.952103,317.005707 
	C135.827255,325.264008 138.875305,334.007385 143.584518,341.747131 
	C147.447906,348.096741 153.226562,353.281067 158.175949,359.621826 
	C158.776413,359.807495 159.376892,359.993195 160.078247,360.610657 
	C160.248260,360.889832 160.496704,361.028351 161.120926,361.634186 
	C162.071732,362.145599 163.022537,362.657043 164.075256,363.604401 
	C164.245880,363.886719 164.496109,364.027710 165.054123,364.536407 
	C165.377548,364.642487 165.700989,364.748566 166.414963,365.004578 
	C166.414963,365.004578 166.832657,365.027771 167.057190,365.546112 
	C167.370682,365.738800 167.684158,365.931488 167.984726,366.012238 
M381.922150,94.429527 
	C380.304260,100.445145 380.147949,106.347603 380.752258,112.699181 
	C382.593994,132.057785 399.292664,145.045349 415.598877,147.898636 
	C436.980438,151.639984 456.998505,158.383499 474.396545,171.774719 
	C476.843567,173.658188 479.158386,175.898468 481.911346,177.133057 
	C483.687836,177.929749 486.151855,177.193298 488.307770,177.143921 
	C488.023834,175.398895 488.356476,173.085999 487.356567,172.000320 
	C480.487610,164.542114 474.208923,156.117355 466.079132,150.341873 
	C453.722351,141.563507 440.102448,134.532700 426.848145,127.062904 
	C421.394958,123.989624 417.045990,120.239326 414.995544,114.223877 
	C413.192841,108.935310 414.211212,106.876701 419.664825,104.441727 
	C419.960846,105.998940 420.117767,107.598358 420.575378,109.106537 
	C423.602631,119.083260 430.034943,124.592644 440.647003,126.202454 
	C449.566101,127.555450 457.038788,125.669991 462.473206,118.839577 
	C471.380005,107.644821 469.649200,84.929665 459.316284,74.912338 
	C448.969788,64.881805 436.162170,60.832817 421.902008,60.999451 
	C402.257202,61.229000 386.704559,74.886749 381.922150,94.429527 
M379.945435,402.787140 
	C381.322510,407.929474 382.487701,413.145172 384.224457,418.163055 
	C384.663177,419.430634 386.985748,420.862305 388.335938,420.763336 
	C389.624329,420.668915 391.390015,418.890778 391.878326,417.482635 
	C394.095367,411.088837 395.573486,404.418854 398.089569,398.158539 
	C399.089142,395.671387 401.738922,393.136292 404.246490,392.107513 
	C410.338348,389.608093 416.839111,388.123688 423.055573,385.896637 
	C424.601013,385.342957 426.648926,383.574554 426.721619,382.267487 
	C426.793549,380.974640 424.916290,378.856262 423.449097,378.322205 
	C417.848114,376.283173 412.122681,374.517090 406.337921,373.072632 
	C401.171906,371.782684 398.282776,368.825562 396.925262,363.697662 
	C395.318451,357.628174 393.314209,351.651459 391.174438,345.746063 
	C390.749939,344.574554 388.876984,343.130554 387.772858,343.210236 
	C386.477295,343.303680 384.651306,344.681641 384.179962,345.927856 
	C382.816925,349.531342 381.857758,353.313110 381.030334,357.088470 
	C379.120789,365.801239 375.992188,372.989227 365.531860,374.319427 
	C360.821716,374.918427 356.261688,377.030029 351.771759,378.804871 
	C350.586578,379.273376 349.140442,381.089111 349.209442,382.199493 
	C349.290131,383.497589 350.654236,385.372772 351.888245,385.819794 
	C355.665192,387.188049 359.673035,387.901550 363.542725,389.034821 
	C370.685730,391.126678 378.360199,392.641235 379.945435,402.787140 
M105.617249,129.882599 
	C103.084312,131.266907 100.672264,132.982727 97.991051,133.960403 
	C93.608444,135.558441 88.990654,136.511459 84.607689,138.108704 
	C83.479095,138.520004 82.158188,140.342926 82.194946,141.476196 
	C82.232964,142.648087 83.600136,144.405350 84.760933,144.798126 
	C88.728363,146.140518 92.858322,147.004959 96.930679,148.034302 
	C102.349991,149.404114 106.288155,152.247177 107.615967,158.066833 
	C108.587219,162.323700 109.692329,166.572433 111.130821,170.687393 
	C111.595100,172.015503 113.259079,173.692886 114.465500,173.769272 
	C115.593811,173.840714 117.269371,172.226929 117.940125,170.952698 
	C118.972885,168.990784 119.611504,166.726685 119.965141,164.518356 
	C121.492500,154.980652 126.063240,148.485306 136.270767,146.948120 
	C138.946930,146.545090 141.606216,145.525513 144.056732,144.341095 
	C145.286377,143.746780 146.706848,142.186157 146.777649,140.987900 
	C146.833832,140.037048 145.136795,138.615433 143.917465,138.039200 
	C141.899384,137.085449 139.675781,136.463089 137.474670,136.018265 
	C128.542038,134.213043 121.891144,130.169373 120.528961,120.177124 
	C120.165085,117.507912 119.114540,114.868767 117.996002,112.388657 
	C117.267693,110.773766 115.846985,109.471146 114.736465,108.028633 
	C113.492172,109.520195 111.713486,110.821541 111.102348,112.538467 
	C109.157204,118.003197 107.646614,123.622612 105.617249,129.882599 
M279.946228,92.999771 
	C284.248291,92.999901 288.567871,92.760429 292.847076,93.073380 
	C296.497009,93.340317 298.895660,91.924858 298.842255,88.462570 
	C298.788025,84.948784 295.953613,83.890533 292.644379,83.974533 
	C288.510437,84.079475 284.331116,83.661873 280.253571,84.152580 
	C278.407654,84.374725 275.673248,85.947479 275.269775,87.431625 
	C274.619354,89.823837 275.511993,92.687721 279.946228,92.999771 
M310.000061,111.268829 
	C309.997437,107.786392 310.246338,104.279465 309.910400,100.829491 
	C309.654816,98.205124 308.763397,95.605339 305.096985,95.986763 
	C302.004517,96.308487 300.937439,98.086349 300.980804,100.995354 
	C301.052490,105.803406 300.795197,110.627777 301.131470,115.413292 
	C301.228241,116.790085 302.645203,118.444458 303.915222,119.237640 
	C304.755585,119.762474 307.137756,119.413300 307.564819,118.699081 
	C308.734192,116.743446 309.234711,114.387863 310.000061,111.268829 
M302.306458,60.149109 
	C301.871002,65.621277 301.420135,71.092278 301.006226,76.566086 
	C300.778839,79.573448 301.692993,81.746330 305.140472,82.000961 
	C309.068817,82.291115 309.790344,79.482018 309.936981,76.640396 
	C310.166870,72.183960 310.149902,67.700386 309.956146,63.240524 
	C309.757843,58.675331 307.298553,57.496178 302.306458,60.149109 
M316.936279,83.999855 
	C313.349670,83.832336 311.743195,85.662628 312.029816,89.113556 
	C312.287781,92.219315 314.330505,93.094467 317.187714,93.026535 
	C321.484009,92.924377 325.785095,92.957932 330.083099,93.013527 
	C333.294800,93.055077 335.581146,91.572411 334.792419,88.399796 
	C334.361115,86.664787 331.987488,84.472008 330.224274,84.198784 
	C326.187744,83.573280 321.988129,84.000099 316.936279,83.999855 
z"/>
<path fill="#FDCC78" opacity="1.000000" stroke="none" 
	d="
M230.130676,195.964478 
	C255.860123,197.705017 277.446167,208.006668 294.718353,227.222504 
	C295.051117,227.592682 295.433685,227.925369 295.723206,228.325989 
	C302.193451,237.278534 304.316071,237.982025 315.372467,235.330734 
	C327.150635,232.506378 339.082886,230.248459 350.730652,226.971268 
	C380.390259,218.626282 409.871857,209.647812 439.540588,201.336517 
	C453.531586,197.417145 467.720337,194.093460 481.981934,191.341888 
	C484.880829,190.782578 489.332733,193.226410 491.611084,195.653915 
	C495.227264,199.506805 494.871368,206.234299 491.783417,209.608765 
	C489.928345,211.635956 487.771210,213.667496 485.337067,214.840897 
	C459.473419,227.308762 434.537811,241.390762 411.160400,258.064270 
	C400.568207,265.618958 390.609589,274.062683 380.377777,282.121216 
	C378.457855,283.633331 376.605560,285.231354 373.982819,286.901123 
	C371.764801,287.187469 370.252045,287.218872 368.812408,287.559326 
	C353.613556,291.153992 338.462494,294.958710 323.226898,298.388428 
	C303.161957,302.905243 283.064972,305.487152 262.627106,300.001129 
	C234.645065,292.490082 215.842697,269.106079 216.147903,240.172028 
	C216.299744,225.778015 218.068146,211.401062 219.536285,197.015442 
	C223.355087,196.664490 226.742874,196.314484 230.130676,195.964478 
z"/>
<path fill="#FCB73E" opacity="1.000000" stroke="none" 
	d="
M219.105270,197.016388 
	C218.068146,211.401062 216.299744,225.778015 216.147903,240.172028 
	C215.842697,269.106079 234.645065,292.490082 262.627106,300.001129 
	C283.064972,305.487152 303.161957,302.905243 323.226898,298.388428 
	C338.462494,294.958710 353.613556,291.153992 368.812408,287.559326 
	C370.252045,287.218872 371.764801,287.187469 373.672302,287.034637 
	C368.526825,292.740845 362.765839,298.255341 357.417847,304.144867 
	C346.711212,315.935822 336.230652,327.932068 325.114563,339.758484 
	C322.241119,340.357544 319.761658,340.734283 317.602325,341.775177 
	C302.343201,349.130554 286.080994,352.352509 269.344360,352.893250 
	C252.534653,353.436340 236.179596,350.418396 220.709229,343.685425 
	C201.344559,335.257507 185.946350,322.389221 176.480682,303.055450 
	C169.012512,287.801605 166.863419,271.860748 168.893906,255.051300 
	C171.159958,236.291901 175.552979,218.405853 187.063980,202.931458 
	C194.573029,201.229675 202.082077,199.527908 210.229935,197.435608 
	C213.614258,197.035507 216.359756,197.025940 219.105270,197.016388 
z"/>
<path fill="#FD982E" opacity="1.000000" stroke="none" 
	d="
M186.896698,202.642883 
	C175.552979,218.405853 171.159958,236.291901 168.893906,255.051300 
	C166.863419,271.860748 169.012512,287.801605 176.480682,303.055450 
	C185.946350,322.389221 201.344559,335.257507 220.709229,343.685425 
	C236.179596,350.418396 252.534653,353.436340 269.344360,352.893250 
	C286.080994,352.352509 302.343201,349.130554 317.602325,341.775177 
	C319.761658,340.734283 322.241119,340.357544 324.806702,339.898376 
	C314.533569,351.910156 301.896881,360.825409 287.149963,367.926361 
	C286.010864,368.446930 285.505768,368.790924 285.000641,369.134949 
	C285.000641,369.134949 285.016144,369.038635 284.754944,369.077118 
	C283.996460,369.455475 283.499146,369.795349 283.001831,370.135254 
	C283.001831,370.135223 283.017090,370.039490 282.755402,370.077271 
	C281.996368,370.455078 281.499023,370.795105 281.001678,371.135162 
	C281.001678,371.135162 281.017334,371.039581 280.755554,371.077057 
	C279.996216,371.454254 279.498688,371.793976 279.001190,372.133667 
	C279.001190,372.133698 279.018433,372.042603 278.663208,372.034698 
	C272.817108,373.871063 267.368866,375.856689 261.826630,377.531128 
	C249.036392,381.395233 235.989990,383.443756 222.604233,382.025299 
	C214.702759,381.187988 206.836823,380.015137 198.728577,378.996643 
	C198.502228,379.000153 198.049530,379.007935 197.801697,378.785034 
	C196.698517,378.372437 195.843170,378.182800 194.993912,377.996582 
	C195.000000,378.000000 195.012375,378.006561 194.770203,377.783325 
	C193.681168,377.371033 192.834290,377.181946 191.993713,376.996460 
	C192.000000,377.000000 192.012955,377.006714 191.749512,376.768311 
	C188.620636,375.706970 185.755188,374.884003 182.889725,374.061035 
	C182.889725,374.061035 182.977188,374.052948 182.820618,373.780823 
	C180.052292,372.347687 177.440536,371.186707 174.828766,370.025696 
	C174.828766,370.025696 174.425568,370.004578 174.152924,369.587646 
	C172.530273,368.455872 171.180267,367.741028 169.830246,367.026184 
	C169.830246,367.026184 169.415009,367.004761 169.059692,366.752136 
	C168.452225,366.298096 168.175095,366.140533 167.873001,366.026886 
	C167.873001,366.026886 167.984726,366.012238 167.836578,365.845642 
	C167.403168,365.461945 167.117905,365.244873 166.832642,365.027771 
	C166.832657,365.027771 166.414963,365.004578 166.050842,364.750427 
	C165.424042,364.295532 165.137115,364.139221 164.825974,364.027374 
	C164.496109,364.027710 164.245880,363.886719 163.946533,363.035797 
	C162.819717,361.986847 161.821655,361.506531 160.823578,361.026184 
	C160.496704,361.028351 160.248260,360.889832 159.868988,360.157440 
	C159.158585,359.463440 158.657425,359.222687 158.156265,358.981903 
	C153.226562,353.281067 147.447906,348.096741 143.584518,341.747131 
	C138.875305,334.007385 135.827255,325.264008 131.952103,317.005707 
	C130.680710,314.296204 129.527740,311.318146 127.540337,309.192444 
	C115.356087,296.160339 103.071587,283.110535 87.428787,274.125458 
	C80.940628,270.398682 73.692848,267.994385 66.507004,264.563934 
	C68.145531,263.427032 70.053276,262.142578 71.991913,262.094116 
	C86.270775,261.737122 97.897995,268.604462 108.903206,276.544800 
	C115.972755,281.645569 122.496109,287.503326 129.703522,293.379883 
	C130.483124,286.615417 131.215363,280.261810 131.947601,273.908173 
	C134.354324,256.824402 139.347702,240.917328 150.910049,227.440247 
	C160.779205,215.936752 172.687149,207.714127 186.896698,202.642883 
z"/>
<path fill="#65B9FF" opacity="1.000000" stroke="none" 
	d="
M381.956512,94.006256 
	C386.704559,74.886749 402.257202,61.229000 421.902008,60.999451 
	C436.162170,60.832817 448.969788,64.881805 459.316284,74.912338 
	C469.649200,84.929665 471.380005,107.644821 462.473206,118.839577 
	C457.038788,125.669991 449.566101,127.555450 440.647003,126.202454 
	C430.034943,124.592644 423.602631,119.083260 420.575378,109.106537 
	C420.117767,107.598358 419.960846,105.998940 419.665009,104.441689 
	C414.211212,106.876701 413.192841,108.935310 414.995544,114.223877 
	C417.045990,120.239326 421.394958,123.989624 426.848145,127.062904 
	C440.102448,134.532700 453.722351,141.563507 466.079132,150.341873 
	C474.208923,156.117355 480.487610,164.542114 487.356567,172.000320 
	C488.356476,173.085999 488.023834,175.398895 488.307770,177.143921 
	C486.151855,177.193298 483.687836,177.929749 481.911346,177.133057 
	C479.158386,175.898468 476.843567,173.658188 474.396545,171.774719 
	C456.998505,158.383499 436.980438,151.639984 415.598877,147.898636 
	C399.292664,145.045349 382.593994,132.057785 380.752258,112.699181 
	C380.147949,106.347603 380.304260,100.445145 381.956512,94.006256 
z"/>
<path fill="#FCB73E" opacity="1.000000" stroke="none" 
	d="
M259.103333,392.933716 
	C264.076324,402.336731 269.169800,411.679108 273.949463,421.179382 
	C275.398499,424.059540 277.104858,424.859894 280.301697,425.192963 
	C285.004639,425.682953 290.079590,426.602264 294.078094,428.921417 
	C300.156830,432.447083 301.653839,440.620361 298.395935,447.492126 
	C296.754364,446.130493 295.612671,444.163910 294.201721,443.946777 
	C284.370422,442.433716 274.497681,441.155365 264.610840,440.045410 
	C248.127258,438.194855 231.618896,436.566040 215.128952,434.770599 
	C197.818848,432.885834 180.538223,430.703461 163.206146,429.057129 
	C151.911240,427.984222 147.377441,424.477142 144.999420,413.502014 
	C144.863937,412.876801 144.628357,412.273254 144.447800,411.686981 
	C136.590973,412.798492 133.070496,417.883606 132.939499,428.073486 
	C130.215744,423.514557 130.877197,419.362152 134.161926,415.297668 
	C138.545715,409.873352 144.293289,408.396729 150.877228,409.052948 
	C153.634628,409.327728 156.382828,409.694763 159.914246,410.303894 
	C163.967407,411.040375 167.241974,411.489746 170.515594,411.945953 
	C175.861679,412.690979 180.358978,411.448151 184.624527,407.733063 
	C194.409286,399.210846 205.962738,395.421570 219.038467,395.941376 
	C232.485199,396.475983 245.913330,396.122589 259.103333,392.933716 
z"/>
<path fill="#FCB73E" opacity="1.000000" stroke="none" 
	d="
M131.595642,273.946045 
	C131.215363,280.261810 130.483124,286.615417 129.703522,293.379883 
	C122.496109,287.503326 115.972755,281.645569 108.903206,276.544800 
	C97.897995,268.604462 86.270775,261.737122 71.991913,262.094116 
	C70.053276,262.142578 68.145531,263.427032 66.106384,264.487671 
	C61.512737,264.949158 56.921333,264.485931 52.594151,265.348389 
	C48.789116,266.106781 46.896717,272.630646 48.266544,277.643768 
	C51.541668,289.629669 59.103699,298.796509 68.288261,306.553741 
	C74.700706,311.969696 81.924072,316.425507 88.638412,321.792542 
	C84.357277,326.424774 80.222946,330.574554 75.691757,335.122681 
	C75.941986,335.205902 75.231750,335.138092 74.730965,334.778564 
	C62.223553,325.799042 51.032234,315.451233 43.174164,302.078552 
	C36.428047,290.598175 33.468113,278.144714 36.618584,264.874481 
	C40.035069,250.483719 49.055244,241.021805 62.971592,236.159744 
	C75.261497,235.970901 86.356758,240.388748 96.138428,246.980835 
	C107.701675,254.773560 118.245651,264.078217 129.242004,272.714020 
	C129.860321,273.199615 130.574234,273.563446 131.595642,273.946045 
z"/>
<path fill="#FD992E" opacity="1.000000" stroke="none" 
	d="
M62.517448,236.087631 
	C49.055244,241.021805 40.035069,250.483719 36.618584,264.874481 
	C33.468113,278.144714 36.428047,290.598175 43.174164,302.078552 
	C51.032234,315.451233 62.223553,325.799042 74.730965,334.778564 
	C75.231750,335.138092 75.941986,335.205902 75.691757,335.122681 
	C80.222946,330.574554 84.357277,326.424774 88.791153,322.110168 
	C91.818748,323.301697 94.546799,324.658051 97.463814,326.435730 
	C97.097878,331.447327 96.063591,336.039215 96.078636,340.627625 
	C96.122452,353.982819 109.748070,363.819214 122.479424,360.035828 
	C124.214355,359.520233 126.042336,359.317780 127.827240,358.970367 
	C126.524612,363.880768 122.576241,366.424133 118.652451,368.799133 
	C105.793289,376.582611 87.109833,368.682922 84.832413,353.274475 
	C84.404167,352.448059 84.137909,352.228210 83.871658,352.008362 
	C83.871666,352.008362 83.967056,352.024384 83.901566,351.727356 
	C79.853477,349.307281 75.870888,347.184204 71.888298,345.061127 
	C71.888298,345.061127 71.960693,345.049896 71.896667,344.741333 
	C69.184799,342.975372 66.536949,341.518005 63.889107,340.060669 
	C63.889114,340.060638 63.961308,340.049500 63.887028,339.741028 
	C62.837749,338.975281 61.862751,338.517975 60.887749,338.060699 
	C60.887749,338.060699 60.960236,338.048553 60.911713,337.722961 
	C59.537731,336.618835 58.212265,335.840332 56.886803,335.061829 
	C56.886803,335.061829 56.959412,335.049774 56.908962,334.721741 
	C55.514992,333.604553 54.171471,332.815369 52.827957,332.026184 
	C52.498497,332.027222 52.248264,331.886963 51.981018,331.022156 
	C50.198273,329.301331 48.511780,328.163666 46.825287,327.026001 
	C43.960262,324.278137 41.095234,321.530273 37.963486,318.246460 
	C37.422737,317.475616 37.148712,317.240753 36.874687,317.005859 
	C36.874691,317.005859 36.962452,317.029999 36.956253,316.712738 
	C36.244186,315.606171 35.538319,314.816833 34.832451,314.027527 
	C34.501507,314.028778 34.249908,313.888123 33.994007,313.049774 
	C33.227757,311.670227 32.545162,310.846436 31.862564,310.022644 
	C31.862564,310.022644 31.952166,310.025604 31.922478,309.737549 
	C31.215315,308.641174 30.537840,307.832855 29.860361,307.024536 
	C29.860357,307.024536 29.947578,307.027252 29.947056,306.714111 
	C29.255556,305.618500 28.564581,304.836029 27.873602,304.053558 
	C27.873598,304.053558 27.963686,304.039948 27.867228,303.864929 
	C27.620413,303.396759 27.410572,303.155334 27.141249,302.965576 
	C27.141249,302.965576 26.995224,302.581177 26.882042,302.153137 
	C26.620111,301.426941 26.412483,301.177856 26.145975,300.977844 
	C26.145975,300.977844 25.995789,300.585205 25.989489,300.111511 
	C25.645945,299.130768 25.308699,298.623718 24.971455,298.116699 
	C18.260229,282.207123 17.095640,266.447601 26.987591,251.348907 
	C33.427265,241.519638 43.491856,237.650818 54.604160,236.050629 
	C57.041679,235.699600 59.574417,236.009811 62.517448,236.087631 
M95.218224,329.515015 
	C95.082550,329.521545 94.946884,329.528076 94.811218,329.534576 
	C94.901627,329.577667 94.992027,329.620758 95.218224,329.515015 
z"/>
<path fill="#FD982E" opacity="1.000000" stroke="none" 
	d="
M132.965942,428.447144 
	C133.070496,417.883606 136.590973,412.798492 144.447800,411.686981 
	C144.628357,412.273254 144.863937,412.876801 144.999420,413.502014 
	C147.377441,424.477142 151.911240,427.984222 163.206146,429.057129 
	C180.538223,430.703461 197.818848,432.885834 215.128952,434.770599 
	C231.618896,436.566040 248.127258,438.194855 264.610840,440.045410 
	C274.497681,441.155365 284.370422,442.433716 294.201721,443.946777 
	C295.612671,444.163910 296.754364,446.130493 298.050903,447.692688 
	C298.081146,448.097900 298.055389,448.024658 297.873322,448.165466 
	C297.471252,448.582367 297.251221,448.858521 297.031219,449.134644 
	C294.733307,453.758179 287.414307,457.096283 282.732147,456.398834 
	C273.510895,455.025238 264.216766,454.146820 254.962143,452.988922 
	C245.078003,451.752258 235.211044,450.377380 225.324661,449.159760 
	C216.228180,448.039429 207.109253,447.101715 198.012268,445.985229 
	C188.127167,444.772034 178.256790,443.439392 168.378555,442.170044 
	C160.123917,441.109314 151.847855,440.194611 143.617950,438.969086 
	C137.829971,438.107178 134.493576,434.342102 132.965942,428.447144 
z"/>
<path fill="#FCB73E" opacity="1.000000" stroke="none" 
	d="
M379.756927,402.425293 
	C378.360199,392.641235 370.685730,391.126678 363.542725,389.034821 
	C359.673035,387.901550 355.665192,387.188049 351.888245,385.819794 
	C350.654236,385.372772 349.290131,383.497589 349.209442,382.199493 
	C349.140442,381.089111 350.586578,379.273376 351.771759,378.804871 
	C356.261688,377.030029 360.821716,374.918427 365.531860,374.319427 
	C375.992188,372.989227 379.120789,365.801239 381.030334,357.088470 
	C381.857758,353.313110 382.816925,349.531342 384.179962,345.927856 
	C384.651306,344.681641 386.477295,343.303680 387.772858,343.210236 
	C388.876984,343.130554 390.749939,344.574554 391.174438,345.746063 
	C393.314209,351.651459 395.318451,357.628174 396.925262,363.697662 
	C398.282776,368.825562 401.171906,371.782684 406.337921,373.072632 
	C412.122681,374.517090 417.848114,376.283173 423.449097,378.322205 
	C424.916290,378.856262 426.793549,380.974640 426.721619,382.267487 
	C426.648926,383.574554 424.601013,385.342957 423.055573,385.896637 
	C416.839111,388.123688 410.338348,389.608093 404.246490,392.107513 
	C401.738922,393.136292 399.089142,395.671387 398.089569,398.158539 
	C395.573486,404.418854 394.095367,411.088837 391.878326,417.482635 
	C391.390015,418.890778 389.624329,420.668915 388.335938,420.763336 
	C386.985748,420.862305 384.663177,419.430634 384.224457,418.163055 
	C382.487701,413.145172 381.322510,407.929474 379.756927,402.425293 
z"/>
<path fill="#FD992E" opacity="1.000000" stroke="none" 
	d="
M259.055542,392.571014 
	C245.913330,396.122589 232.485199,396.475983 219.038467,395.941376 
	C205.962738,395.421570 194.409286,399.210846 184.624527,407.733063 
	C180.358978,411.448151 175.861679,412.690979 170.515594,411.945953 
	C167.241974,411.489746 163.967407,411.040375 160.361343,410.375061 
	C167.778564,400.844086 175.533478,391.530701 183.270905,382.202789 
	C184.503098,380.717316 185.656708,379.166626 187.404816,377.327423 
	C189.312973,377.008118 190.662964,377.007416 192.012955,377.006714 
	C192.012955,377.006714 192.000000,377.000000 192.232208,377.224548 
	C193.313721,377.634888 194.163055,377.820709 195.012375,378.006561 
	C195.012375,378.006561 195.000000,378.000000 195.235046,378.226074 
	C196.329910,378.637390 197.189728,378.822662 198.049530,379.007935 
	C198.049530,379.007935 198.502228,379.000153 198.985886,379.261169 
	C211.682983,383.777222 224.232758,384.638977 237.043365,383.541870 
	C242.718658,383.055786 248.442841,383.140747 254.144836,382.966522 
	C254.144836,382.966522 254.038483,382.975891 254.135498,383.141327 
	C254.381897,383.597321 254.589966,383.836914 254.856735,384.025543 
	C256.240387,386.753143 257.624054,389.480713 259.055542,392.571014 
z"/>
<path fill="#FCB73E" opacity="1.000000" stroke="none" 
	d="
M105.792679,129.532425 
	C107.646614,123.622612 109.157204,118.003197 111.102348,112.538467 
	C111.713486,110.821541 113.492172,109.520195 114.736465,108.028633 
	C115.846985,109.471146 117.267693,110.773766 117.996002,112.388657 
	C119.114540,114.868767 120.165085,117.507912 120.528961,120.177124 
	C121.891144,130.169373 128.542038,134.213043 137.474670,136.018265 
	C139.675781,136.463089 141.899384,137.085449 143.917465,138.039200 
	C145.136795,138.615433 146.833832,140.037048 146.777649,140.987900 
	C146.706848,142.186157 145.286377,143.746780 144.056732,144.341095 
	C141.606216,145.525513 138.946930,146.545090 136.270767,146.948120 
	C126.063240,148.485306 121.492500,154.980652 119.965141,164.518356 
	C119.611504,166.726685 118.972885,168.990784 117.940125,170.952698 
	C117.269371,172.226929 115.593811,173.840714 114.465500,173.769272 
	C113.259079,173.692886 111.595100,172.015503 111.130821,170.687393 
	C109.692329,166.572433 108.587219,162.323700 107.615967,158.066833 
	C106.288155,152.247177 102.349991,149.404114 96.930679,148.034302 
	C92.858322,147.004959 88.728363,146.140518 84.760933,144.798126 
	C83.600136,144.405350 82.232964,142.648087 82.194946,141.476196 
	C82.158188,140.342926 83.479095,138.520004 84.607689,138.108704 
	C88.990654,136.511459 93.608444,135.558441 97.991051,133.960403 
	C100.672264,132.982727 103.084312,131.266907 105.792679,129.532425 
z"/>
<path fill="#F6B55B" opacity="1.000000" stroke="none" 
	d="
M219.536285,197.015442 
	C216.359756,197.025940 213.614258,197.035507 210.418640,197.078369 
	C201.435410,192.882736 196.152710,185.683044 196.259308,176.532913 
	C196.437958,161.199677 209.629761,150.633682 224.762299,155.010605 
	C225.078949,155.102173 225.399902,155.178879 225.526825,155.623230 
	C218.856384,157.156204 215.572678,162.717697 217.168884,169.814362 
	C218.669022,176.483887 225.911423,180.629013 232.569199,178.628601 
	C238.298233,176.907242 239.531540,174.519608 237.779617,168.710159 
	C237.401825,167.457382 237.234802,166.141083 236.970703,164.854034 
	C241.864166,171.029068 242.385986,177.932266 238.907898,184.625122 
	C236.839737,188.604874 233.178879,191.756943 230.182373,195.622803 
	C226.742874,196.314484 223.355087,196.664490 219.536285,197.015442 
z"/>
<path fill="#FCB73E" opacity="1.000000" stroke="none" 
	d="
M128.013611,358.617279 
	C126.042336,359.317780 124.214355,359.520233 122.479424,360.035828 
	C109.748070,363.819214 96.122452,353.982819 96.078636,340.627625 
	C96.063591,336.039215 97.097878,331.447327 97.824463,326.513458 
	C108.198784,323.114899 117.594254,323.872467 124.944328,332.517639 
	C131.565521,340.305511 131.357864,349.143585 128.013611,358.617279 
z"/>
<path fill="#F9CA8B" opacity="1.000000" stroke="none" 
	d="
M236.952118,164.663147 
	C237.234802,166.141083 237.401825,167.457382 237.779617,168.710159 
	C239.531540,174.519608 238.298233,176.907242 232.569199,178.628601 
	C225.911423,180.629013 218.669022,176.483887 217.168884,169.814362 
	C215.572678,162.717697 218.856384,157.156204 225.725403,155.976608 
	C227.315826,156.397827 228.515640,156.826385 230.033539,157.816788 
	C230.923126,158.578125 231.494659,158.777618 232.066177,158.977127 
	C232.066177,158.977127 232.001907,158.989441 232.117401,159.193176 
	C232.513840,159.595383 232.794754,159.793839 233.075684,159.992294 
	C233.075684,159.992294 233.005508,159.993896 233.119629,160.195084 
	C233.514771,160.594833 233.795792,160.793381 234.076828,160.991928 
	C234.076828,160.991928 234.006012,160.993271 234.128387,161.200638 
	C234.544373,161.610916 234.837997,161.813828 235.131622,162.016739 
	C235.457672,162.020691 235.705719,162.161774 236.001129,162.900055 
	C236.351822,163.610641 236.577179,163.861176 236.802536,164.111710 
	C236.802536,164.111710 236.933548,164.472244 236.952118,164.663147 
z"/>
<path fill="#65B9FF" opacity="1.000000" stroke="none" 
	d="
M279.497131,92.998535 
	C275.511993,92.687721 274.619354,89.823837 275.269775,87.431625 
	C275.673248,85.947479 278.407654,84.374725 280.253571,84.152580 
	C284.331116,83.661873 288.510437,84.079475 292.644379,83.974533 
	C295.953613,83.890533 298.788025,84.948784 298.842255,88.462570 
	C298.895660,91.924858 296.497009,93.340317 292.847076,93.073380 
	C288.567871,92.760429 284.248291,92.999901 279.497131,92.998535 
z"/>
<path fill="#65B9FF" opacity="1.000000" stroke="none" 
	d="
M310.000061,111.729736 
	C309.234711,114.387863 308.734192,116.743446 307.564819,118.699081 
	C307.137756,119.413300 304.755585,119.762474 303.915222,119.237640 
	C302.645203,118.444458 301.228241,116.790085 301.131470,115.413292 
	C300.795197,110.627777 301.052490,105.803406 300.980804,100.995354 
	C300.937439,98.086349 302.004517,96.308487 305.096985,95.986763 
	C308.763397,95.605339 309.654816,98.205124 309.910400,100.829491 
	C310.246338,104.279465 309.997437,107.786392 310.000061,111.729736 
z"/>
<path fill="#65B9FF" opacity="1.000000" stroke="none" 
	d="
M302.618256,59.880859 
	C307.298553,57.496178 309.757843,58.675331 309.956146,63.240524 
	C310.149902,67.700386 310.166870,72.183960 309.936981,76.640396 
	C309.790344,79.482018 309.068817,82.291115 305.140472,82.000961 
	C301.692993,81.746330 300.778839,79.573448 301.006226,76.566086 
	C301.420135,71.092278 301.871002,65.621277 302.618256,59.880859 
z"/>
<path fill="#65B9FF" opacity="1.000000" stroke="none" 
	d="
M317.395508,83.999725 
	C321.988129,84.000099 326.187744,83.573280 330.224274,84.198784 
	C331.987488,84.472008 334.361115,86.664787 334.792419,88.399796 
	C335.581146,91.572411 333.294800,93.055077 330.083099,93.013527 
	C325.785095,92.957932 321.484009,92.924377 317.187714,93.026535 
	C314.330505,93.094467 312.287781,92.219315 312.029816,89.113556 
	C311.743195,85.662628 313.349670,83.832336 317.395508,83.999725 
z"/>
<path fill="#FCAE39" opacity="1.000000" stroke="none" 
	d="
M254.095428,382.575134 
	C248.442841,383.140747 242.718658,383.055786 237.043365,383.541870 
	C224.232758,384.638977 211.682983,383.777222 199.212219,379.257690 
	C206.836823,380.015137 214.702759,381.187988 222.604233,382.025299 
	C235.989990,383.443756 249.036392,381.395233 261.826630,377.531128 
	C267.368866,375.856689 272.817108,373.871063 278.708374,372.045349 
	C271.342529,375.040405 263.572296,378.006317 255.817734,381.012817 
	C255.172775,381.262878 254.634079,381.786957 254.095428,382.575134 
z"/>
<path fill="#FDB33B" opacity="1.000000" stroke="none" 
	d="
M72.037918,345.381836 
	C75.870888,347.184204 79.853477,349.307281 83.891724,351.774719 
	C80.027420,349.980255 76.107475,347.841400 72.037918,345.381836 
z"/>
<path fill="#FDB33B" opacity="1.000000" stroke="none" 
	d="
M64.034103,340.378296 
	C66.536949,341.518005 69.184799,342.975372 71.890457,344.777405 
	C69.358551,343.646729 66.768822,342.171326 64.034103,340.378296 
z"/>
<path fill="#FDB33B" opacity="1.000000" stroke="none" 
	d="
M174.991089,370.348389 
	C177.440536,371.186707 180.052292,372.347687 182.822205,373.824707 
	C180.371353,372.984192 177.762390,371.827637 174.991089,370.348389 
z"/>
<path fill="#FDB33B" opacity="1.000000" stroke="none" 
	d="
M191.749512,376.768341 
	C190.662964,377.007416 189.312973,377.008118 187.558517,377.012817 
	C185.834564,376.237671 184.515060,375.458496 183.042633,374.370178 
	C185.755188,374.884003 188.620636,375.706970 191.749512,376.768341 
z"/>
<path fill="#FDB33B" opacity="1.000000" stroke="none" 
	d="
M46.976093,327.333862 
	C48.511780,328.163666 50.198273,329.301331 51.929214,330.804688 
	C50.358078,329.994171 48.742489,328.817963 46.976093,327.333862 
z"/>
<path fill="#FDB33B" opacity="1.000000" stroke="none" 
	d="
M57.022423,335.368530 
	C58.212265,335.840332 59.537731,336.618835 60.904686,337.759033 
	C59.683468,337.305542 58.420757,336.490387 57.022423,335.368530 
z"/>
<path fill="#FDB33B" opacity="1.000000" stroke="none" 
	d="
M52.976746,332.332092 
	C54.171471,332.815369 55.514992,333.604553 56.901962,334.757874 
	C55.672123,334.294006 54.398834,333.466003 52.976746,332.332092 
z"/>
<path fill="#FDB33B" opacity="1.000000" stroke="none" 
	d="
M169.975800,367.330078 
	C171.180267,367.741028 172.530273,368.455872 173.965393,369.512970 
	C172.740768,369.114807 171.431046,368.374390 169.975800,367.330078 
z"/>
<path fill="#FDB33B" opacity="1.000000" stroke="none" 
	d="
M34.907524,314.352081 
	C35.538319,314.816833 36.244186,315.606171 36.942131,316.755981 
	C36.283672,316.303223 35.633137,315.489929 34.907524,314.352081 
z"/>
<path fill="#FDB33B" opacity="1.000000" stroke="none" 
	d="
M61.019783,338.362976 
	C61.862751,338.517975 62.837749,338.975281 63.881416,339.777130 
	C63.017326,339.636200 62.084568,339.150726 61.019783,338.362976 
z"/>
<path fill="#FDB33B" opacity="1.000000" stroke="none" 
	d="
M27.931168,304.378967 
	C28.564581,304.836029 29.255556,305.618500 29.943104,306.757568 
	C29.289360,306.310883 28.639044,305.507629 27.931168,304.378967 
z"/>
<path fill="#FDB33B" opacity="1.000000" stroke="none" 
	d="
M160.972260,361.330200 
	C161.821655,361.506531 162.819717,361.986847 163.895569,362.817810 
	C163.022537,362.657043 162.071732,362.145599 160.972260,361.330200 
z"/>
<path fill="#FDB33B" opacity="1.000000" stroke="none" 
	d="
M31.932644,310.349396 
	C32.545162,310.846436 33.227757,311.670227 33.941376,312.831421 
	C33.315842,312.337891 32.659279,311.507019 31.932644,310.349396 
z"/>
<path fill="#FDB33B" opacity="1.000000" stroke="none" 
	d="
M29.923166,307.352173 
	C30.537840,307.832855 31.215315,308.641174 31.918598,309.782227 
	C31.291594,309.303223 30.638781,308.491547 29.923166,307.352173 
z"/>
<path fill="#FDB33B" opacity="1.000000" stroke="none" 
	d="
M24.987064,298.429810 
	C25.308699,298.623718 25.645945,299.130768 25.977032,299.901672 
	C25.648144,299.691376 25.325411,299.217163 24.987064,298.429810 
z"/>
<path fill="#FCAE39" opacity="1.000000" stroke="none" 
	d="
M279.320068,372.075867 
	C279.498688,371.793976 279.996216,371.454254 280.802979,371.086792 
	C280.621124,371.378693 280.130005,371.698395 279.320068,372.075867 
z"/>
<path fill="#FCAE39" opacity="1.000000" stroke="none" 
	d="
M281.320496,371.076965 
	C281.499023,370.795105 281.996368,370.455078 282.802917,370.086792 
	C282.621216,370.378632 282.130280,370.698700 281.320496,371.076965 
z"/>
<path fill="#FCAE39" opacity="1.000000" stroke="none" 
	d="
M283.320435,370.076538 
	C283.499146,369.795349 283.996460,369.455475 284.802734,369.086700 
	C284.620850,369.377808 284.129974,369.697845 283.320435,370.076538 
z"/>
<path fill="#FCAE39" opacity="1.000000" stroke="none" 
	d="
M285.323730,369.075684 
	C285.505768,368.790924 286.010864,368.446930 286.828491,368.067688 
	C286.642914,368.360443 286.144897,368.688416 285.323730,369.075684 
z"/>
<path fill="#FDB33B" opacity="1.000000" stroke="none" 
	d="
M158.166107,359.301880 
	C158.657425,359.222687 159.158585,359.463440 159.818558,359.941528 
	C159.376892,359.993195 158.776413,359.807495 158.166107,359.301880 
z"/>
<path fill="#F6B55B" opacity="1.000000" stroke="none" 
	d="
M231.954071,158.673615 
	C231.494659,158.777618 230.923126,158.578125 230.175720,158.122086 
	C230.613876,158.033722 231.227936,158.201904 231.954071,158.673615 
z"/>
<path fill="#F6B55B" opacity="1.000000" stroke="none" 
	d="
M234.003525,160.725754 
	C233.795792,160.793381 233.514771,160.594833 233.120270,160.160004 
	C233.314606,160.102341 233.622406,160.280960 234.003525,160.725754 
z"/>
<path fill="#FCAE39" opacity="1.000000" stroke="none" 
	d="
M254.892120,383.749573 
	C254.589966,383.836914 254.381897,383.597321 254.132782,383.088013 
	C254.331192,383.070709 254.629333,383.272156 254.892120,383.749573 
z"/>
<path fill="#F6B55B" opacity="1.000000" stroke="none" 
	d="
M233.002701,159.726135 
	C232.794754,159.793839 232.513840,159.595383 232.119812,159.160553 
	C232.314392,159.102783 232.622055,159.281387 233.002701,159.726135 
z"/>
<path fill="#FCB73E" opacity="1.000000" stroke="none" 
	d="
M297.292053,449.033386 
	C297.251221,448.858521 297.471252,448.582367 297.910248,448.153412 
	C297.937134,448.311096 297.745026,448.621613 297.292053,449.033386 
z"/>
<path fill="#F6B55B" opacity="1.000000" stroke="none" 
	d="
M235.039948,161.748611 
	C234.837997,161.813828 234.544373,161.610916 234.128448,161.165222 
	C234.320190,161.108459 234.634232,161.294479 235.039948,161.748611 
z"/>
<path fill="#F6B55B" opacity="1.000000" stroke="none" 
	d="
M236.861313,163.820526 
	C236.577179,163.861176 236.351822,163.610641 236.054413,163.115601 
	C236.294952,163.090515 236.607513,163.309921 236.861313,163.820526 
z"/>
<path fill="#FDB33B" opacity="1.000000" stroke="none" 
	d="
M167.969009,366.286499 
	C168.175095,366.140533 168.452225,366.298096 168.865723,366.677368 
	C168.706390,366.752197 168.385696,366.649139 167.969009,366.286499 
z"/>
<path fill="#FDB33B" opacity="1.000000" stroke="none" 
	d="
M166.944916,365.286957 
	C167.117905,365.244873 167.403168,365.461945 167.843033,365.901611 
	C167.684158,365.931488 167.370682,365.738800 166.944916,365.286957 
z"/>
<path fill="#FDB33B" opacity="1.000000" stroke="none" 
	d="
M164.940048,364.281891 
	C165.137115,364.139221 165.424042,364.295532 165.855560,364.675476 
	C165.700989,364.748566 165.377548,364.642487 164.940048,364.281891 
z"/>
<path fill="#FDB33B" opacity="1.000000" stroke="none" 
	d="
M26.118053,301.255188 
	C26.412483,301.177856 26.620111,301.426941 26.871437,301.947815 
	C26.679386,301.957855 26.384760,301.745209 26.118053,301.255188 
z"/>
<path fill="#FDB33B" opacity="1.000000" stroke="none" 
	d="
M83.963684,352.267761 
	C84.137909,352.228210 84.404167,352.448059 84.813644,352.883972 
	C84.656479,352.909088 84.356094,352.718109 83.963684,352.267761 
z"/>
<path fill="#FDB33B" opacity="1.000000" stroke="none" 
	d="
M27.107780,303.243225 
	C27.410572,303.155334 27.620413,303.396759 27.871603,303.910278 
	C27.673063,303.927368 27.373690,303.724152 27.107780,303.243225 
z"/>
<path fill="#FDB33B" opacity="1.000000" stroke="none" 
	d="
M36.965225,317.275513 
	C37.148712,317.240753 37.422737,317.475616 37.835045,317.945129 
	C37.667473,317.968201 37.361622,317.756683 36.965225,317.275513 
z"/>
<path fill="#FDB33B" opacity="1.000000" stroke="none" 
	d="
M197.801697,378.785034 
	C197.189728,378.822662 196.329910,378.637390 195.228958,378.222656 
	C195.843170,378.182800 196.698517,378.372437 197.801697,378.785034 
z"/>
<path fill="#FDB33B" opacity="1.000000" stroke="none" 
	d="
M194.770203,377.783325 
	C194.163055,377.820709 193.313721,377.634888 192.225906,377.220978 
	C192.834290,377.181946 193.681168,377.371033 194.770203,377.783325 
z"/>
<path fill="#FCB73E" opacity="1.000000" stroke="none" 
	d="
M95.150330,329.589417 
	C94.992027,329.620758 94.901627,329.577667 94.811218,329.534607 
	C94.946884,329.528076 95.082550,329.521545 95.150330,329.589417 
z"/>
</svg>